<svg id="Layer_1" data-name="Layer 1" xmlns="http://www.w3.org/2000/svg" viewBox="0 0 28.12 23.01"><defs><style>.cls-1{fill:#3eb3e7;}</style></defs><title>enabled-chromecast</title><path class="cls-1" d="M44.88,44.84h-23a2.56,2.56,0,0,0-2.55,2.56v3.83h2.55V47.4h23V65.3h-9v2.55h9a2.56,2.56,0,0,0,2.56-2.55V47.4A2.56,2.56,0,0,0,44.88,44.84ZM19.32,64v3.83h3.83A3.82,3.82,0,0,0,19.32,64Zm0-5.12v2.56a6.4,6.4,0,0,1,6.39,6.39h2.55A9,9,0,0,0,19.32,58.9Zm0-5.11v2.56a11.5,11.5,0,0,1,11.5,11.5h2.56A14.06,14.06,0,0,0,19.32,53.79Z" transform="translate(-19.32 -44.84)"/></svg>